<?xml version="1.0" encoding="UTF-8"?>
<svg id="Layer_1" data-name="Layer 1" xmlns="http://www.w3.org/2000/svg" viewBox="0 0 1000 1000">
  <defs>
    <style>
      .cls-1 {
        fill: #18181b;
        stroke-width: 0px;
      }
    </style>
  </defs>
  <path class="cls-1" d="M921.05,578.95c0,55.83-10.86,109.14-30.61,157.89-15.45,38.19-36.36,73.6-61.73,105.26-15.2,18.95-32,36.57-50.21,52.63-74.21,65.52-171.73,105.26-278.51,105.26H184.21c-58.13,0-105.26-47.14-105.26-105.26V263.16c0-53.52,39.96-97.73,91.66-104.4,4.46-.57,8.99-.86,13.6-.86v736.84h315.79c64.55,0,124.59-19.37,174.59-52.63,37.73-25.05,69.75-58.02,93.68-96.53,1.81-2.88,3.56-5.79,5.24-8.74,26.88-46.44,42.27-100.38,42.27-157.89,0-26.53-3.26-52.29-9.43-76.91v-.02c-34.36-137.22-158.48-238.86-306.36-238.86h-105.26v-105.26h105.26c102.97,0,197.28,36.95,270.44,98.32.02,0,.02.02.02.02,2.72,2.27,5.39,4.59,8.04,6.93,68.65,60.59,117.41,143.24,135.16,236.84,4.84,25.58,7.39,51.96,7.39,78.95Z"/>
  <path class="cls-1" d="M915.22,350.78c-17.39-31.58-38.27-60.95-62.15-87.62-38.34-42.82-84.34-78.63-135.85-105.26-62.51-32.32-133.14-51.12-208.02-52.53-1.03-.04-2.04-.06-3.07-.06-1.68-.02-3.39-.04-5.07-.04h-158.95v631.58h158.95c108.72,0,204.61-54.95,261.41-138.59-3.75,51.81-22.51,99.43-51.92,138.59-47.28,62.97-122.15,104.02-206.65,105.24-1.31.02-2.59.02-3.89.02h-157.89c-6.61,0-13.07-.61-19.35-1.79-42.61-7.92-76.21-41.52-84.13-84.13-.36-1.89-.67-3.81-.93-5.75-.57-4.46-.86-8.99-.86-13.6V105.26c0-4.61.29-9.14.86-13.6C244.38,39.96,288.59,0,342.11,0h157.89c106.78,0,204.29,39.75,278.51,105.26,18.21,16.06,35.01,33.68,50.21,52.63,25.37,31.66,46.27,67.07,61.73,105.26,11.28,27.85,19.66,57.18,24.78,87.62Z"/>
</svg>