<?xml version="1.0" encoding="UTF-8"?>
<svg version="1.1" xmlns="http://www.w3.org/2000/svg" width="2001" height="786">
<path d="M0 0 C0 190.74 0 381.48 0 578 C226.8677799 595.75498144 226.8677799 595.75498144 420 507 C420.50176758 506.52691406 421.00353516 506.05382812 421.52050781 505.56640625 C428.96083814 498.50407341 435.4914483 491.01455216 441.64111328 482.80761719 C442.99407864 481.0078767 444.36855445 479.22628451 445.74609375 477.4453125 C472.57013262 442.34430473 488.5976372 398.81886693 493 355 C493.16628906 353.37578125 493.16628906 353.37578125 493.3359375 351.71875 C496.90364884 310.44900802 489.60608719 268.87324727 473 231 C472.534729 229.91912109 472.534729 229.91912109 472.06005859 228.81640625 C464.07791852 210.41231809 453.43947772 193.69294863 441 178 C440.24203125 177.02933594 439.4840625 176.05867187 438.703125 175.05859375 C430.36437608 164.60472421 421.3251294 154.52202776 411 146 C410.071875 145.18402344 409.14375 144.36804688 408.1875 143.52734375 C391.0910871 128.54990023 371.5768927 116.57562097 351 107 C350.29456055 106.6714502 349.58912109 106.34290039 348.86230469 106.00439453 C310.73286874 88.52627054 271.51619399 84.06502281 230.11328125 83.68359375 C228.18987154 83.66294853 226.26646559 83.64195056 224.34306335 83.62062073 C219.35056662 83.56617931 214.35803447 83.51643618 209.36547852 83.46777344 C203.33779903 83.40800277 197.31018237 83.34221636 191.28255463 83.27747345 C182.18840905 83.18044892 173.09421782 83.09092283 164 83 C164 55.61 164 28.22 164 0 C189.08137544 -0.12032643 189.08137544 -0.12032643 199.95703125 -0.14648438 C207.3137072 -0.16426384 214.67026884 -0.18505396 222.02685547 -0.22631836 C274.88305783 -0.51470786 274.88305783 -0.51470786 297 3 C297.78091003 3.11604584 298.56182007 3.23209167 299.36639404 3.35165405 C303.79186822 4.01196309 308.17585606 4.79999641 312.5625 5.6875 C314.48316284 6.07095581 314.48316284 6.07095581 316.44262695 6.4621582 C355.61308747 14.47596539 393.57532426 30.04160098 427 52 C427.68739258 52.45084961 428.37478516 52.90169922 429.08300781 53.36621094 C438.16189093 59.36909517 446.89689433 65.75937477 455.33056641 72.63916016 C456.91391507 73.92982782 458.50937232 75.20559927 460.10546875 76.48046875 C468.49459164 83.32582739 476.1447772 90.93328033 483.8125 98.5625 C484.61646713 99.35856659 484.61646713 99.35856659 485.43667603 100.17071533 C492.42729792 107.10819848 498.91973968 114.2335729 505 122 C505.57838623 122.72968994 506.15677246 123.45937988 506.75268555 124.21118164 C522.11501082 143.71245893 535.348554 164.48879053 546.01416016 186.93359375 C546.67959836 188.32841023 547.35399025 189.71898537 548.03662109 191.10546875 C566.84762147 229.39775641 578.00139698 274.19502649 578.203125 316.84375 C578.21013931 317.8430101 578.21715363 318.8422702 578.22438049 319.87181091 C578.24179124 323.08125366 578.24823347 326.29051175 578.25 329.5 C578.25101212 331.14671188 578.25101212 331.14671188 578.25204468 332.82669067 C578.23584143 349.41745555 577.74010396 365.60252748 575 382 C574.75056641 383.56621094 574.75056641 383.56621094 574.49609375 385.1640625 C565.74823886 438.94717032 543.37543548 489.97602953 510 533 C509.33226562 533.86238281 508.66453125 534.72476563 507.9765625 535.61328125 C503.88646926 540.81077128 499.58902923 545.76960337 495.12890625 550.65234375 C493.33317723 552.63258804 491.59932394 554.6456535 489.875 556.6875 C481.59595326 566.16026975 472.53783965 575.12559537 462.65234375 582.90625 C459.82680519 585.13671932 457.10753308 587.46926946 454.375 589.8125 C441.49417092 600.53545823 427.43425631 609.53114625 413 618 C411.93990723 618.62986816 411.93990723 618.62986816 410.85839844 619.27246094 C356.93176396 651.15064219 295.83016828 662.13529451 233.94360352 662.16113281 C231.33831717 662.16576975 228.73303149 662.17079556 226.12774658 662.17617798 C219.09265469 662.18964815 212.05756857 662.19576685 205.02246594 662.20018864 C200.61875049 662.20296777 196.21503717 662.20720774 191.81132317 662.21169281 C179.58397466 662.22386574 167.35662784 662.2341721 155.12927341 662.2375679 C154.3497597 662.23778747 153.57024598 662.23800703 152.76711064 662.23823325 C151.98591194 662.23845153 151.20471324 662.23866981 150.39984185 662.2388947 C148.8172611 662.23933814 147.23468035 662.23978471 145.65209961 662.24023438 C144.47461935 662.24056652 144.47461935 662.24056652 143.2733516 662.24090537 C130.55000312 662.24485469 117.82671184 662.2623217 105.10338546 662.2855939 C91.99578074 662.30937303 78.88820469 662.32177256 65.78057808 662.32293582 C58.43891291 662.32384837 51.09732257 662.32949487 43.75567818 662.34775543 C36.85018324 662.3648731 29.94483193 662.36636042 23.0393219 662.35761642 C20.51634274 662.35684968 17.99335576 662.36114053 15.47039604 662.37107468 C-13.87727989 662.47978855 -38.28844773 658.39485215 -60 637 C-73.66974509 623.35270112 -83.1279926 604.86522966 -83.26972538 585.23727277 C-83.26561475 584.42802113 -83.26150411 583.61876949 -83.25726891 582.78499508 C-83.26077498 581.89807296 -83.26428105 581.01115084 -83.26789337 580.0973523 C-83.27717514 577.13425045 -83.27229236 574.17134654 -83.26742554 571.20823669 C-83.27116343 569.05872487 -83.2757655 566.9092144 -83.28115618 564.75970608 C-83.2933846 558.85929292 -83.29312588 552.95893646 -83.29076743 547.05851352 C-83.29035922 540.69224415 -83.30139888 534.32599295 -83.31088257 527.95973206 C-83.32749316 515.48871172 -83.33301809 503.01771088 -83.33410732 490.54668044 C-83.33502707 480.40782213 -83.33914716 470.26896993 -83.34550858 460.1301136 C-83.34730372 457.20965118 -83.34908335 454.28918875 -83.35085833 451.36872631 C-83.35130043 450.64264557 -83.35174252 449.91656483 -83.35219802 449.16848164 C-83.3645042 428.74857726 -83.37239938 408.328675 -83.37151146 387.90876675 C-83.37146472 386.75428362 -83.37146472 386.75428362 -83.37141704 385.57647761 C-83.37125083 381.67572372 -83.37105275 377.77496984 -83.37084763 373.87421595 C-83.37080774 373.09954166 -83.37076785 372.32486737 -83.37072675 371.52671811 C-83.37064587 369.96013734 -83.37056228 368.39355657 -83.37047596 366.8269758 C-83.36925093 342.46299579 -83.38425578 318.09907149 -83.41162109 293.73510742 C-83.44236916 266.3482607 -83.45955191 238.96145057 -83.45769465 211.5745855 C-83.45754539 208.65192258 -83.45744798 205.72925967 -83.45738602 202.80659676 C-83.45736271 202.08698948 -83.4573394 201.3673822 -83.45731538 200.62596864 C-83.45725394 189.06526755 -83.47000443 177.50461497 -83.48725055 165.94392829 C-83.50423786 154.31584991 -83.50581478 142.687858 -83.4930319 131.05977225 C-83.48650768 124.76516037 -83.4863656 118.47072355 -83.5037384 112.17612839 C-83.51949803 106.40654141 -83.51657564 100.63726789 -83.49917014 94.86768842 C-83.49610662 92.78760437 -83.49970796 90.70749676 -83.51089029 88.6274405 C-83.58591117 73.67457856 -82.59262068 59.29528595 -75.375 45.8125 C-75.03581543 45.16015381 -74.69663086 44.50780762 -74.34716797 43.83569336 C-63.68616005 24.04664864 -46.60621437 9.88736183 -25.27734375 2.9296875 C-16.61082104 0.47124602 -9.19079497 0 0 0 Z " fill="#18181B" transform="translate(83,124)"/>
<path d="M0 0 C1.47002418 -0.00435641 2.94004609 -0.00954263 4.4100647 -0.01548767 C8.3824604 -0.02881024 12.35476052 -0.02946234 16.32717419 -0.02692437 C19.67010756 -0.02584696 23.01302222 -0.03075916 26.35595155 -0.03552979 C34.27279728 -0.04660846 42.18959559 -0.04707601 50.10644531 -0.04101562 C58.19156765 -0.03501954 66.27651403 -0.04717842 74.36160636 -0.06858569 C81.36010691 -0.0864141 88.35855265 -0.09216901 95.35707498 -0.08894795 C99.51065867 -0.08716332 103.66411782 -0.08947696 107.81768036 -0.10366249 C189.39208545 -0.35798467 266.74457458 22.74969587 330.20410156 75.2746582 C331.16574219 76.05067383 332.12738281 76.82668945 333.11816406 77.6262207 C341.18301192 84.24827468 348.62601682 91.48239332 356.01660156 98.8371582 C356.5043808 99.31976105 356.99216003 99.80236389 357.49472046 100.29959106 C364.19488529 106.9436451 370.34022785 113.88032429 376.20410156 121.2746582 C377.25232074 122.55280535 378.30279404 123.82911034 379.35644531 125.1027832 C386.20967448 133.48520574 392.4244499 142.12050626 398.20410156 151.2746582 C398.57067871 151.85086914 398.93725586 152.42708008 399.31494141 153.02075195 C406.68833514 164.69115711 413.02846774 176.93835401 419.20410156 189.2746582 C419.61160645 190.08467285 420.01911133 190.8946875 420.43896484 191.72924805 C433.19626268 217.45619312 443.14386784 247.6784742 446.20410156 276.2746582 C445.54410156 276.2746582 444.88410156 276.2746582 444.20410156 276.2746582 C443.67042969 275.29368164 443.13675781 274.31270508 442.58691406 273.30200195 C434.25193014 258.13869901 424.62430033 244.07408341 414.20410156 230.2746582 C413.75421875 229.67766113 413.30433594 229.08066406 412.84082031 228.46557617 C406.91526354 220.64665886 400.63886325 213.30401841 393.91113281 206.1652832 C391.75954058 203.86776769 389.68150315 201.54496031 387.64160156 199.1496582 C380.78643967 191.24114216 373.1675979 184.04916029 365.20410156 177.2746582 C364.23472656 176.41614258 363.26535156 175.55762695 362.26660156 174.6730957 C255.52658568 80.58316051 133.3404507 85.18890053 -3.79589844 84.2746582 C-3.79589844 247.2946582 -3.79589844 410.3146582 -3.79589844 578.2746582 C83.06627743 581.67678978 83.06627743 581.67678978 176.32910156 571.5871582 C177.39563965 571.331521 178.46217773 571.07588379 179.56103516 570.8125 C218.19342006 561.22158307 253.44124127 542.61100446 283.20410156 516.2746582 C284.50927734 515.13577148 284.50927734 515.13577148 285.84082031 513.97387695 C299.36621221 502.01972368 310.64789936 488.91446009 321.30737305 474.40478516 C322.5836507 472.67778603 323.89088525 470.97373841 325.20410156 469.2746582 C325.53410156 469.2746582 325.86410156 469.2746582 326.20410156 469.2746582 C325.2630195 521.88970059 298.40335338 570.85598845 261.46582031 606.95043945 C233.93689937 632.56707645 199.84462996 650.14985138 163.14160156 658.0871582 C162.24562256 658.28237061 161.34964355 658.47758301 160.42651367 658.67871094 C140.7308437 662.62830744 120.82032729 662.59010848 100.82726765 662.57624078 C97.71861857 662.57515538 94.6099892 662.58009305 91.50134444 662.5848462 C84.16022307 662.59585325 76.81915292 662.5964271 69.47802734 662.59033203 C61.95477053 662.58428125 54.43170021 662.59665156 46.90847516 662.6179021 C40.39491263 662.63561048 33.88140902 662.64150555 27.36782336 662.63826436 C23.50099504 662.63646816 19.63430024 662.63891969 15.7674942 662.6529789 C-14.28000225 662.75284308 -40.08903453 660.30666776 -62.79589844 638.2746582 C-63.40949219 637.73454102 -64.02308594 637.19442383 -64.65527344 636.63793945 C-79.47316776 623.14549898 -86.2713584 602.6974738 -87.79589844 583.2746582 C-87.91848182 580.25338306 -87.93251999 577.23840753 -87.92453289 574.21492481 C-87.92628593 573.35693998 -87.92803896 572.49895515 -87.92984512 571.61497077 C-87.93447588 568.75638431 -87.93204721 565.89784937 -87.92961121 563.03926086 C-87.93148065 560.9624209 -87.93378189 558.88558128 -87.93647653 556.80874223 C-87.94258441 551.11389772 -87.94246212 545.41906791 -87.94128215 539.72422087 C-87.94107789 533.57749241 -87.94659934 527.43076863 -87.95133972 521.28404236 C-87.95964128 509.24597042 -87.96240731 497.20790471 -87.9629521 485.16983066 C-87.9634121 475.38329713 -87.96547279 465.59676518 -87.96865273 455.81023216 C-87.9695503 452.99056107 -87.97044012 450.17088997 -87.9713276 447.35121888 C-87.97154865 446.65018805 -87.9717697 445.94915722 -87.97199745 445.22688303 C-87.97814955 425.51465787 -87.98209822 405.80243326 -87.98165417 386.0902071 C-87.98163859 385.34738397 -87.98162301 384.60456083 -87.98160696 383.83922791 C-87.98152385 380.07451477 -87.98142481 376.30980164 -87.98132225 372.54508851 C-87.98130231 371.79743827 -87.98128236 371.04978804 -87.98126181 370.27948174 C-87.98122137 368.76755131 -87.98117958 367.25562089 -87.98113642 365.74369046 C-87.98052379 342.2254424 -87.98802876 318.70720877 -88.00170898 295.18896484 C-88.01708195 268.74993888 -88.02567448 242.31092239 -88.02474576 215.87189168 C-88.02467113 213.05064881 -88.02462243 210.22940594 -88.02459145 207.40816307 C-88.02457979 206.71353158 -88.02456814 206.01890008 -88.02455613 205.30321915 C-88.02452541 194.14314915 -88.03090094 182.98309171 -88.03952371 171.82302544 C-88.04801593 160.59950265 -88.04880684 149.37599795 -88.04241439 138.15247212 C-88.03915172 132.07675334 -88.03908344 126.0010799 -88.04776764 119.92536545 C-88.05564461 114.35702926 -88.05418893 108.78877429 -88.04548351 103.22044005 C-88.04395116 101.21240964 -88.0457546 99.20437312 -88.05134358 97.1963499 C-88.12776039 67.77889302 -82.60849436 43.98651779 -61.75292969 22.1340332 C-44.73409492 5.91345523 -23.01503437 -0.04541334 0 0 Z " fill="#18181B" transform="translate(210.7958984375,-0.274658203125)"/>
<path d="M0 0 C142.37175353 0 142.37175353 0 160.8125 5.75 C161.66739014 6.00676514 162.52228027 6.26353027 163.40307617 6.52807617 C187.99722618 14.1245043 208.28438804 26.38721439 227 44 C227.65097656 44.58652344 228.30195312 45.17304688 228.97265625 45.77734375 C248.02637069 63.65731808 259.90080992 88.61361057 267.25 113.3125 C267.48428711 114.08053955 267.71857422 114.8485791 267.95996094 115.63989258 C272.26872127 130.9013733 273.50485395 146.56495373 273.39111328 162.35449219 C273.37500077 164.99987285 273.39110045 167.64372673 273.41015625 170.2890625 C273.46466703 213.77786528 257.84124612 254.49586707 227.375 285.6875 C226.59125 286.450625 225.8075 287.21375 225 288 C224.56171875 288.48339844 224.1234375 288.96679688 223.671875 289.46484375 C200.35364708 314.49071967 165.76731634 325.31895481 133 330 C89.11 330 45.22 330 0 330 C0 221.1 0 112.2 0 0 Z M57 48 C57 125.22 57 202.44 57 282 C126.11438209 285.01346787 126.11438209 285.01346787 182 256 C182.62132812 255.46117187 183.24265625 254.92234375 183.8828125 254.3671875 C205.16826101 234.66577237 215.73481898 202.56046162 217.12988281 174.37597656 C218.3638589 138.96460211 209.97065566 106.10844441 186.75 78.8125 C176.32345098 67.6424927 163.11698627 59.00967995 148.8125 53.75 C148.19084961 53.51571289 147.56919922 53.28142578 146.92871094 53.04003906 C118.74017571 43.30878148 84.65801651 48 57 48 Z " fill="#18181B" transform="translate(829,254)"/>
<path d="M0 0 C0.75761627 -0.00979385 1.51523254 -0.01958771 2.29580688 -0.02967834 C34.08259416 -0.35620622 34.08259416 -0.35620622 48.92578125 4.23828125 C49.97185547 4.55176514 49.97185547 4.55176514 51.0390625 4.87158203 C71.30294863 11.14530373 89.53623166 23.4255799 100.04492188 42.2421875 C106.92797095 55.33324056 111.05726557 68.49561743 111.04603577 83.42002869 C111.0473174 84.45193001 111.0473174 84.45193001 111.04862493 85.50467783 C111.05026123 87.79082479 111.04478892 90.07689701 111.03930664 92.36303711 C111.03902434 94.00936888 111.03918334 95.65570077 111.03974915 97.30203247 C111.04003546 101.7580985 111.03416556 106.21413749 111.02717519 110.67019725 C111.020914 115.33201506 111.02033566 119.99383354 111.01914978 124.65565491 C111.01604462 133.47754521 111.00784221 142.29942308 110.99780029 151.12130791 C110.98661385 161.16722662 110.98112233 171.21314593 110.97610486 181.25906932 C110.96565891 201.9188151 110.94732356 222.57854385 110.92578125 243.23828125 C92.77578125 243.23828125 74.62578125 243.23828125 55.92578125 243.23828125 C55.59578125 231.02828125 55.26578125 218.81828125 54.92578125 206.23828125 C52.61578125 210.19828125 50.30578125 214.15828125 47.92578125 218.23828125 C44.98968201 221.77011077 42.14444002 225.00360925 38.92578125 228.23828125 C38.20003906 228.99882813 37.47429687 229.759375 36.7265625 230.54296875 C20.41113847 246.55369046 -1.26253959 251.49627576 -23.45092773 251.48706055 C-46.33648746 251.2246158 -67.50054747 243.24591184 -84.07421875 227.23828125 C-98.95083423 210.55913108 -103.3529348 191.65112711 -102.28564453 169.85009766 C-101.0272354 154.30453083 -93.88817498 142.08959138 -83.07421875 131.23828125 C-82.48253906 130.62339844 -81.89085937 130.00851562 -81.28125 129.375 C-57.81311049 106.83936934 -20.69530479 103.44213994 9.84008789 99.46850586 C32.45540156 96.97200803 32.45540156 96.97200803 51.42578125 85.67578125 C54.54197154 80.61197203 54.51311024 75.03496298 53.92578125 69.23828125 C52.37751005 63.07478124 49.53157393 59.0617089 44.27734375 55.51953125 C29.05614816 47.22625525 8.56794339 46.64656348 -8.01171875 50.92578125 C-18.9137161 54.18502421 -29.13355485 58.87548701 -35.67578125 68.625 C-38.72948785 74.31275176 -39.92715364 79.92980679 -41.07421875 86.23828125 C-59.47071157 85.62506482 -77.75386749 83.94373124 -96.07421875 82.23828125 C-94.93219853 58.50555264 -87.19039533 41.19167501 -69.63671875 24.98828125 C-50.64338793 8.9938974 -24.69370717 0.26366069 0 0 Z M51.17578125 123.36328125 C35.47544528 135.53104163 14.95553358 138.099846 -4.19628906 140.71923828 C-16.57725056 142.50507109 -32.45860069 146.44317385 -40.4140625 157.01953125 C-45.65856741 164.92429227 -46.89817419 171.94415538 -45.07421875 181.23828125 C-42.44888454 189.41391441 -36.66781326 195.08454006 -29.19921875 199.05078125 C-16.26372614 204.94641806 -1.42477576 205.06647497 11.92578125 200.23828125 C28.90297973 193.2543501 39.6112161 182.10589039 47.51171875 165.62890625 C53.51529675 151.23358662 56.5874177 135.86025294 55.92578125 120.23828125 C54.04372854 120.23828125 52.54228572 122.21122821 51.17578125 123.36328125 Z " fill="#18181B" transform="translate(1864.07421875,340.76171875)"/>
<path d="M0 0 C0.75761627 -0.00979385 1.51523254 -0.01958771 2.29580688 -0.02967834 C34.08259416 -0.35620622 34.08259416 -0.35620622 48.92578125 4.23828125 C49.97185547 4.55176514 49.97185547 4.55176514 51.0390625 4.87158203 C71.30294863 11.14530373 89.53623166 23.4255799 100.04492188 42.2421875 C106.92797095 55.33324056 111.05726557 68.49561743 111.04603577 83.42002869 C111.0473174 84.45193001 111.0473174 84.45193001 111.04862493 85.50467783 C111.05026123 87.79082479 111.04478892 90.07689701 111.03930664 92.36303711 C111.03902434 94.00936888 111.03918334 95.65570077 111.03974915 97.30203247 C111.04003546 101.7580985 111.03416556 106.21413749 111.02717519 110.67019725 C111.020914 115.33201506 111.02033566 119.99383354 111.01914978 124.65565491 C111.01604462 133.47754521 111.00784221 142.29942308 110.99780029 151.12130791 C110.98661385 161.16722662 110.98112233 171.21314593 110.97610486 181.25906932 C110.96565891 201.9188151 110.94732356 222.57854385 110.92578125 243.23828125 C92.77578125 243.23828125 74.62578125 243.23828125 55.92578125 243.23828125 C55.59578125 231.02828125 55.26578125 218.81828125 54.92578125 206.23828125 C52.61578125 210.19828125 50.30578125 214.15828125 47.92578125 218.23828125 C44.98968201 221.77011077 42.14444002 225.00360925 38.92578125 228.23828125 C38.20003906 228.99882813 37.47429687 229.759375 36.7265625 230.54296875 C20.41113847 246.55369046 -1.26253959 251.49627576 -23.45092773 251.48706055 C-46.33648746 251.2246158 -67.50054747 243.24591184 -84.07421875 227.23828125 C-98.95083423 210.55913108 -103.3529348 191.65112711 -102.28564453 169.85009766 C-101.0272354 154.30453083 -93.88817498 142.08959138 -83.07421875 131.23828125 C-82.48253906 130.62339844 -81.89085937 130.00851562 -81.28125 129.375 C-57.81311049 106.83936934 -20.69530479 103.44213994 9.84008789 99.46850586 C32.45540156 96.97200803 32.45540156 96.97200803 51.42578125 85.67578125 C54.54197154 80.61197203 54.51311024 75.03496298 53.92578125 69.23828125 C52.37751005 63.07478124 49.53157393 59.0617089 44.27734375 55.51953125 C29.05614816 47.22625525 8.56794339 46.64656348 -8.01171875 50.92578125 C-18.9137161 54.18502421 -29.13355485 58.87548701 -35.67578125 68.625 C-38.72948785 74.31275176 -39.92715364 79.92980679 -41.07421875 86.23828125 C-59.47071157 85.62506482 -77.75386749 83.94373124 -96.07421875 82.23828125 C-94.93219853 58.50555264 -87.19039533 41.19167501 -69.63671875 24.98828125 C-50.64338793 8.9938974 -24.69370717 0.26366069 0 0 Z M51.17578125 123.36328125 C35.47544528 135.53104163 14.95553358 138.099846 -4.19628906 140.71923828 C-16.57725056 142.50507109 -32.45860069 146.44317385 -40.4140625 157.01953125 C-45.65856741 164.92429227 -46.89817419 171.94415538 -45.07421875 181.23828125 C-42.44888454 189.41391441 -36.66781326 195.08454006 -29.19921875 199.05078125 C-16.26372614 204.94641806 -1.42477576 205.06647497 11.92578125 200.23828125 C28.90297973 193.2543501 39.6112161 182.10589039 47.51171875 165.62890625 C53.51529675 151.23358662 56.5874177 135.86025294 55.92578125 120.23828125 C54.04372854 120.23828125 52.54228572 122.21122821 51.17578125 123.36328125 Z " fill="#18181B" transform="translate(1246.07421875,340.76171875)"/>
<path d="M0 0 C17.82 0 35.64 0 54 0 C62.91200441 24.46597436 71.79442114 48.94204023 80.625 73.4375 C80.96639637 74.38444544 80.96639637 74.38444544 81.31468964 75.35052109 C86.17259865 88.82512457 91.02778198 102.30070977 95.88194847 115.77666187 C97.93185557 121.4673944 99.98236624 127.15790927 102.03324318 132.84829235 C103.49572703 136.90627445 104.95739449 140.96454936 106.41842461 145.02305508 C107.10393011 146.92685986 107.78983573 148.83051991 108.47592163 150.7341156 C109.3115713 153.05269195 110.14659244 155.37149497 110.98086548 157.69056702 C111.5360939 159.23012306 111.5360939 159.23012306 112.10253906 160.80078125 C112.42256897 161.68934814 112.74259888 162.57791504 113.07232666 163.4934082 C114.00525899 166.0142099 114.99054337 168.50896776 116 171 C118.7073257 165.75718426 121.05116531 160.55416944 123.07421875 155.015625 C123.35474594 154.26008835 123.63527313 153.5045517 123.92430115 152.72612 C124.5305357 151.09289051 125.13491501 149.45897139 125.73760986 147.82443237 C127.39857323 143.32281931 129.07627391 138.82745369 130.75390625 134.33203125 C131.10362488 133.39440445 131.45334351 132.45677765 131.81365967 131.49073792 C135.50659999 121.60956874 139.3088444 111.77159949 143.125 101.9375 C150.69019299 82.43265255 158.1636242 62.89359654 165.60595703 43.34155273 C169.72594919 32.52381321 173.86528147 21.71382574 178.0625 10.92578125 C178.44486816 9.93797165 178.82723633 8.95016205 179.22119141 7.93241882 C179.747854 6.58395622 179.747854 6.58395622 180.28515625 5.20825195 C180.59332275 4.41659134 180.90148926 3.62493073 181.21899414 2.8092804 C182 1 182 1 183 0 C184.68801985 -0.09353163 186.37995207 -0.11744791 188.07055664 -0.11352539 C189.15160172 -0.11344986 190.23264679 -0.11337433 191.34645081 -0.11329651 C193.110485 -0.10555458 193.110485 -0.10555458 194.91015625 -0.09765625 C196.10732773 -0.0962413 197.30449921 -0.09482635 198.53794861 -0.09336853 C202.37949066 -0.08774979 206.22097543 -0.07519411 210.0625 -0.0625 C212.65950437 -0.05748741 215.25650965 -0.05292409 217.85351562 -0.04882812 C224.23569679 -0.03777427 230.6178443 -0.02101792 237 0 C235.79633288 6.18349694 234.08000034 11.89826535 231.75390625 17.74609375 C231.27028122 18.98632042 231.27028122 18.98632042 230.77688599 20.25160217 C230.07811087 22.04187053 229.37645631 23.83101715 228.67221069 25.61914062 C226.734036 30.54157028 224.8180965 35.47267097 222.8984375 40.40234375 C222.49564072 41.43495331 222.09284393 42.46756287 221.67784119 43.53146362 C217.27629487 54.82725283 212.98073613 66.16271155 208.6875 77.5 C201.76263175 95.77033799 194.77464302 114.01550198 187.74862671 132.24716187 C181.04894005 149.63526573 174.41060481 167.04595891 167.80282593 184.46917725 C161.27632213 201.67576773 154.67004666 218.84845144 148 236 C126.88 236 105.76 236 84 236 C78.92625 221.8615625 78.92625 221.8615625 73.75 207.4375 C65.78669309 185.26471153 57.78545961 163.10658691 49.71987915 140.97076416 C44.97058865 127.93551524 40.2339625 114.89587533 35.53125 101.84375 C35.30104345 101.2048798 35.07083691 100.5660096 34.8336544 99.90777969 C32.74076541 94.09913593 30.64874747 88.29017907 28.55899048 82.48040771 C23.77218638 69.17301657 18.96813289 55.87279264 14.0780735 42.6029377 C13.3949582 40.74892482 12.71269452 38.89459823 12.03044128 37.04026794 C9.90706288 31.26970756 7.77759115 25.50155136 5.63647461 19.73754883 C4.88498272 17.69883041 4.13374672 15.66001764 3.3828125 13.62109375 C3.03711716 12.69813507 2.69142181 11.77517639 2.33525085 10.82424927 C1.86983635 9.55470901 1.86983635 9.55470901 1.39501953 8.25952148 C1.12384308 7.52861801 0.85266663 6.79771454 0.57327271 6.04466248 C0 4 0 4 0 0 Z " fill="#18181B" transform="translate(1388,348)"/>
<path d="M0 0 C18.15 0 36.3 0 55 0 C55 77.88 55 155.76 55 236 C36.85 236 18.7 236 0 236 C0 158.12 0 80.24 0 0 Z " fill="#18181B" transform="translate(1659,348)"/>
<path d="M0 0 C21.78 0 43.56 0 66 0 C66 18.81 66 37.62 66 57 C44.22 57 22.44 57 0 57 C0 38.19 0 19.38 0 0 Z " fill="#18181B" transform="translate(1653,258)"/>
</svg>
